<svg width="1600" height="1200" viewBox="0 0 1600 1200" fill="none" xmlns="http://www.w3.org/2000/svg">
<g clip-path="url(#clip0)">
<rect width="1600" height="1200" fill="white"/>
<rect width="1600" height="1200" fill="white"/>
<mask id="mask0" mask-type="alpha" maskUnits="userSpaceOnUse" x="0" y="0" width="1600" height="1200">
<rect width="1600" height="1200" fill="#E4E7EB"/>
</mask>
<g mask="url(#mask0)">
<path d="M-123 686C15.0712 686 127 574.071 127 436C127 297.929 15.0712 186 -123 186C-261.071 186 -373 297.929 -373 436C-373 574.071 -261.071 686 -123 686Z" fill="#423783"/>
<path d="M183 1200C198.464 1200 211 1187.46 211 1172C211 1156.54 198.464 1144 183 1144C167.536 1144 155 1156.54 155 1172C155 1187.46 167.536 1200 183 1200Z" fill="#2C99B0"/>
<path fill-rule="evenodd" clip-rule="evenodd" d="M1491.28 -154.958C1504.56 -141.68 1504.56 -120.153 1491.28 -106.875C1478.01 -93.5971 1456.48 -93.5971 1443.2 -106.875C1429.92 -120.153 1429.92 -141.68 1443.2 -154.958C1456.48 -168.236 1478.01 -168.236 1491.28 -154.958ZM1267.37 69.2195C1280.65 82.4974 1280.65 104.025 1267.37 117.303C1254.09 130.581 1232.56 130.581 1219.28 117.303C1206.01 104.025 1206.01 82.4973 1219.28 69.2195C1232.56 55.9417 1254.09 55.9417 1267.37 69.2195ZM1179.09 173.164C1192.37 186.442 1192.37 207.97 1179.09 221.247C1165.81 234.525 1144.28 234.525 1131 221.247C1117.73 207.97 1117.73 186.442 1131 173.164C1144.28 159.886 1165.81 159.886 1179.09 173.164ZM1375.56 9.11544C1388.83 -4.16238 1388.83 -25.69 1375.56 -38.9678C1362.28 -52.2456 1340.75 -52.2456 1327.47 -38.9678C1314.19 -25.69 1314.19 -4.16239 1327.47 9.11544C1340.75 22.3933 1362.28 22.3933 1375.56 9.11544ZM1256.16 298.322C1262.8 291.683 1262.8 280.919 1256.16 274.28C1249.52 267.642 1238.76 267.642 1232.12 274.28C1225.48 280.919 1225.48 291.683 1232.12 298.322C1238.76 304.961 1249.52 304.961 1256.16 298.322ZM1362.94 167.507C1369.57 174.146 1369.57 184.91 1362.94 191.549C1356.3 198.188 1345.53 198.188 1338.89 191.549C1332.25 184.91 1332.25 174.146 1338.89 167.507C1345.53 160.868 1356.3 160.868 1362.94 167.507ZM1469.71 84.7759C1476.35 78.1369 1476.35 67.3731 1469.71 60.7342C1463.07 54.0953 1452.31 54.0953 1445.67 60.7342C1439.03 67.3732 1439.03 78.137 1445.67 84.7759C1452.31 91.4148 1463.07 91.4148 1469.71 84.7759ZM1576.26 -45.9373C1582.9 -39.2984 1582.9 -28.5346 1576.26 -21.8957C1569.62 -15.2568 1558.86 -15.2568 1552.22 -21.8957C1545.58 -28.5346 1545.58 -39.2984 1552.22 -45.9373C1558.86 -52.5763 1569.62 -52.5762 1576.26 -45.9373Z" fill="#FFEAAB"/>
<rect x="1468.91" y="904" width="1286" height="494" transform="rotate(43 1468.91 904)" fill="#F6B800"/>
<path fill-rule="evenodd" clip-rule="evenodd" d="M667.101 161.429C674.22 177.303 692.859 184.4 708.733 177.281C808.881 132.368 896.812 63.879 965.033 -21.7955C986.041 -15.3361 1008.05 -12 1030.5 -12C1153.38 -12 1253 -111.617 1253 -234.5C1253 -292.048 1230.95 -345.768 1193.37 -386.128C1352.76 -443.47 1464 -595.965 1464 -771.5C1464 -997.661 1280.66 -1181 1054.5 -1181C939.371 -1181 832.013 -1133.16 755.383 -1051.19C655.995 -1105.21 544.322 -1134 428.5 -1134C49.9054 -1134 -257 -827.088 -257 -448.479C-257 -439.49 -256.826 -430.522 -256.481 -421.577C-255.809 -404.193 -241.171 -390.645 -223.787 -391.317C-206.403 -391.989 -192.856 -406.626 -193.528 -424.01C-193.842 -432.145 -194 -440.303 -194 -448.48C-194 -792.294 84.6996 -1071 428.5 -1071C541.715 -1071 650.426 -1040.76 745.634 -984.279C748.196 -982.699 750.921 -981.526 753.722 -980.752C758.3 -979.48 763.036 -979.289 767.583 -980.089C772.135 -980.887 776.527 -982.682 780.401 -985.442C782.762 -987.12 784.917 -989.144 786.782 -991.493C852.229 -1071.04 949.488 -1118 1054.5 -1118C1245.87 -1118 1401 -962.867 1401 -771.5C1401 -604.424 1281.87 -461.985 1119.71 -431.121C1091.01 -425.658 1084.57 -387.444 1109.9 -372.872C1159.07 -344.584 1190 -292.256 1190 -234.5C1190 -146.411 1118.59 -75 1030.5 -75C1008.25 -75 986.685 -79.5419 966.778 -88.229C953.332 -94.0967 937.615 -89.9047 928.876 -78.12C865.236 7.70874 780.447 76.0743 682.953 119.797C667.08 126.916 659.982 145.555 667.101 161.429ZM786.782 -991.493C787.66 -992.598 788.474 -993.776 789.215 -995.023C798.103 -1009.98 793.184 -1029.31 778.229 -1038.19C770.689 -1042.68 763.073 -1047.01 755.383 -1051.19C749.32 -1044.7 743.451 -1038 737.784 -1031.1C726.749 -1017.65 728.705 -997.799 742.154 -986.764C743.273 -985.846 744.436 -985.018 745.634 -984.279C745.77 -984.199 745.907 -984.118 746.043 -984.036C748.506 -982.573 751.088 -981.483 753.722 -980.752C758.262 -979.497 763.004 -979.288 767.583 -980.089C772.166 -980.896 776.557 -982.711 780.401 -985.442C782.623 -987.025 784.674 -988.924 786.487 -991.134C786.585 -991.254 786.684 -991.373 786.782 -991.493Z" fill="#D0E215"/>
</g>
<rect x="639.107" y="997" width="1286" height="1355" transform="rotate(43 639.107 997)" fill="#F83C1E"/>
<rect x="2209.11" y="-668" width="1658" height="1355" transform="rotate(43 2209.11 -668)" fill="#2C99B0"/>
<path fill-rule="evenodd" clip-rule="evenodd" d="M2554.31 222C2554.31 599.763 2248.08 906 1870.31 906C1886.88 906 1900.31 892.568 1900.31 876C1900.31 859.431 1886.88 846 1870.31 846C2214.94 846 2494.31 566.626 2494.31 222C2494.31 -122.626 2214.94 -402 1870.31 -402C1770.05 -402 1673.24 -378.353 1586.02 -333.63C1571.28 -326.071 1553.2 -331.895 1545.64 -346.638C1538.08 -361.381 1543.9 -379.462 1558.64 -387.021C1654.29 -436.063 1760.47 -462 1870.31 -462C2248.08 -462 2554.31 -155.763 2554.31 222ZM1870.31 846C1853.75 846 1840.31 859.431 1840.31 876C1840.31 892.569 1853.75 906 1870.31 906C1702.98 906 1544.92 845.66 1421.3 737.998C1408.8 727.116 1407.5 708.166 1418.38 695.672C1429.26 683.177 1448.21 681.87 1460.7 692.751C1573.5 790.988 1717.61 846 1870.31 846Z" fill="#E95272"/>
</g>
<defs>
<clipPath id="clip0">
<rect width="1600" height="1200" fill="white"/>
</clipPath>
</defs>
</svg>
