<svg width="1600" height="1200" viewBox="0 0 1600 1200" fill="none" xmlns="http://www.w3.org/2000/svg">
<g clip-path="url(#clip0)">
<rect width="1600" height="1200" fill="white"/>
<rect width="1600" height="1200" fill="#E6E9F3"/>
<mask id="mask0" mask-type="alpha" maskUnits="userSpaceOnUse" x="0" y="0" width="1600" height="1200">
<rect width="1600" height="1200" fill="#E6E9F3"/>
</mask>
<g mask="url(#mask0)">
<path d="M388.25 1000.56C564.849 1162.29 816.421 1126.79 996.175 937.537C1175.93 748.283 1139.88 452.175 931.424 329.794C722.963 207.413 493.096 211.764 323.499 392.815C153.901 573.865 211.652 838.83 388.25 1000.56Z" fill="#EFF3F0"/>
<path d="M1398.29 150.015C1493.58 202.246 1611.52 206.887 1681.38 120.617C1751.24 34.3462 1737.76 -92.3637 1651.28 -162.398C1564.79 -232.432 1444.52 -199.235 1368.19 -133C1291.87 -66.7642 1303.01 97.7839 1398.29 150.015Z" fill="#EFF3F0"/>
<path d="M1750.34 737.053C1868.89 833.055 1868.98 990.603 1791.2 1125.5C1713.43 1260.39 1581.42 1384.56 1489.33 1498.28C1397.24 1612 1227.03 1641.22 1100.88 1539.07C974.731 1436.92 955.072 1254.32 1060.01 1150.62C1164.95 1046.93 1249.62 890.578 1361.89 777.842C1474.15 665.106 1631.78 641.051 1750.34 737.053Z" fill="#EFF3F0"/>
<path d="M453.019 1085.22C483.002 1109.5 523.725 1103.99 546.941 1075.32C570.157 1046.65 566.423 999.278 537.091 981.395C507.76 963.512 464.556 956.713 443.169 991.289C421.783 1025.87 423.036 1060.94 453.019 1085.22Z" fill="#E0436B"/>
<path d="M49.4306 113.292C69.1209 129.236 95.8643 125.621 111.111 106.794C126.357 87.9662 123.905 56.8545 104.642 45.1107C85.3799 33.3669 57.0071 28.9016 42.9623 51.6084C28.9175 74.3151 29.7403 97.3467 49.4306 113.292Z" fill="#E0436B"/>
<path d="M587.076 995.935C575.707 1000.19 571.521 1012.37 575.932 1024.84C580.343 1037.32 594.547 1042.5 604.872 1035.9C615.197 1029.31 620.29 1018.82 616.016 1007C611.742 995.17 598.445 991.681 587.076 995.935Z" fill="#E0436B"/>
<path d="M1214.57 164.627C1264.24 204.851 1331.71 195.732 1370.17 148.235C1408.63 100.738 1402.44 22.2513 1353.85 -7.37516C1305.26 -37.0016 1233.68 -48.2661 1198.25 9.01683C1162.82 66.2998 1164.89 124.402 1214.57 164.627Z" fill="#7252A4"/>
<path d="M201.315 325.176C221.006 341.121 247.749 337.506 262.995 318.679C278.242 299.851 275.79 268.739 256.527 256.995C237.265 245.252 208.892 240.786 194.847 263.493C180.802 286.2 181.625 309.231 201.315 325.176Z" fill="#7252A4"/>
<path d="M84.5966 643.717C93.5468 650.964 105.703 649.321 112.633 640.763C119.563 632.205 118.449 618.063 109.693 612.725C100.937 607.387 88.0405 605.357 81.6565 615.679C75.2725 626 75.6465 636.469 84.5966 643.717Z" fill="#7252A4"/>
<path d="M926.313 1259.89C958.856 1286.25 1018.22 1253.28 1054.72 1217.55C1091.23 1181.81 1086.09 1118.04 1040.87 1088.1C995.637 1058.15 943.297 1062.02 911.362 1101.46C879.427 1140.89 893.769 1233.54 926.313 1259.89Z" fill="#7252A4"/>
<path d="M354.705 1337.2C426.726 1403.15 529.324 1388.68 602.632 1311.5C675.941 1234.31 661.241 1113.55 576.226 1063.64C491.211 1013.73 397.466 1015.51 328.3 1089.34C259.133 1163.18 282.685 1271.24 354.705 1337.2Z" fill="#F0C933"/>
<path d="M1420.89 782.957C1448.16 807.924 1486.99 802.444 1514.74 773.228C1542.49 744.011 1536.93 698.298 1504.75 679.405C1472.57 660.513 1437.08 661.184 1410.9 689.134C1384.72 717.085 1393.63 757.989 1420.89 782.957Z" fill="#F0C933"/>
<path d="M575.174 873.06C584.126 881.258 596.879 879.459 605.991 869.865C615.103 860.271 613.276 845.261 602.709 839.058C592.141 832.854 580.489 833.075 571.892 842.252C563.295 851.43 566.222 864.861 575.174 873.06Z" fill="#F0C933"/>
<path d="M1490.17 842.06C1499.13 850.258 1511.88 848.459 1520.99 838.865C1530.1 829.271 1528.28 814.261 1517.71 808.058C1507.14 801.854 1495.49 802.075 1486.89 811.252C1478.29 820.43 1481.22 833.861 1490.17 842.06Z" fill="#F0C933"/>
<path d="M609.088 818.53C613.564 822.629 619.94 821.729 624.496 816.933C629.052 812.136 628.139 804.631 622.855 801.529C617.572 798.427 611.746 798.537 607.447 803.126C603.148 807.715 604.612 814.431 609.088 818.53Z" fill="#F0C933"/>
<path d="M1339.13 529.191C1366.39 554.158 1405.23 548.679 1432.98 519.462C1460.73 490.245 1455.16 444.533 1422.98 425.64C1390.8 406.747 1355.31 407.419 1329.13 435.369C1302.95 463.319 1311.86 504.224 1339.13 529.191Z" fill="#453264"/>
<path d="M127.174 496.06C136.126 504.258 148.879 502.459 157.991 492.865C167.103 483.271 165.276 468.261 154.709 462.058C144.141 455.854 132.489 456.075 123.892 465.252C115.295 474.43 118.222 487.861 127.174 496.06Z" fill="#453264"/>
<path d="M1383.17 999.06C1392.13 1007.26 1404.88 1005.46 1413.99 995.865C1423.1 986.271 1421.28 971.261 1410.71 965.058C1400.14 958.854 1388.49 959.075 1379.89 968.252C1371.29 977.43 1374.22 990.861 1383.17 999.06Z" fill="#453264"/>
<path d="M1279.03 672.613C1272.87 683.074 1277.28 695.174 1288.56 702.092C1299.84 709.01 1314.14 704.102 1318.01 692.476C1321.88 680.85 1319.24 669.499 1308.48 662.998C1297.71 656.496 1285.19 662.152 1279.03 672.613Z" fill="#453264"/>
<path d="M1541.89 382.957C1569.16 407.924 1607.99 402.444 1635.74 373.228C1663.49 344.011 1657.93 298.298 1625.75 279.405C1593.57 260.513 1558.08 261.184 1531.9 289.134C1505.72 317.085 1514.63 357.989 1541.89 382.957Z" fill="#0F90D1"/>
<path d="M-63.1323 1353.31C43.531 1439.69 213.789 1419.71 322.628 1313.12C431.467 1206.54 416.359 1016.54 281.735 927.435C147.112 838.334 -8.79259 850.022 -104.025 967.625C-199.258 1085.23 -169.796 1266.94 -63.1323 1353.31Z" fill="#0F90D1"/>
<path d="M1144.41 277.467C1181.24 311.191 1233.69 303.79 1271.18 264.325C1308.66 224.861 1301.14 163.115 1257.68 137.596C1214.21 112.076 1166.27 112.983 1130.91 150.737C1095.54 188.491 1107.58 243.742 1144.41 277.467Z" fill="#C4C8D4"/>
<path d="M-220.854 1017.32C-119.941 1109.74 23.8148 1089.45 126.532 981.308C229.248 873.163 208.651 703.958 89.5306 634.026C-29.59 564.095 -160.942 566.581 -257.855 670.038C-354.768 773.495 -321.768 924.904 -220.854 1017.32Z" fill="#C4C8D4"/>
<path d="M1510.15 1402.32C1611.06 1494.74 1754.81 1474.45 1857.53 1366.31C1960.25 1258.16 1939.65 1088.96 1820.53 1019.03C1701.41 949.095 1570.06 951.581 1473.14 1055.04C1376.23 1158.5 1409.23 1309.9 1510.15 1402.32Z" fill="#C4C8D4"/>
<path d="M1437.56 250.478C1453.1 258.988 1472.34 259.727 1483.75 245.636C1495.16 231.544 1492.98 210.865 1478.89 199.448C1464.79 188.03 1445.16 193.467 1432.69 204.29C1420.23 215.112 1422.02 241.967 1437.56 250.478Z" fill="#EFF3F0"/>
<path d="M1164.69 76.1566C1174.11 81.3144 1185.77 81.7625 1192.69 73.2223C1199.6 64.682 1198.28 52.1492 1189.74 45.2296C1181.19 38.3099 1169.3 41.6049 1161.74 48.1639C1154.19 54.7229 1155.28 70.9988 1164.69 76.1566Z" fill="#EFF3F0"/>
</g>
<path d="M1094.2 -459.192C1180.68 -389.158 1194.02 -262.274 1123.99 -175.789C1053.95 -89.304 961.493 4.21455 903.723 96.2121C845.953 188.21 698.297 206.484 620.32 125.999C542.344 45.5138 512.434 -60.959 590.533 -157.404C668.633 -253.849 734.053 -334.636 810.795 -429.405C887.538 -524.174 1007.71 -529.226 1094.2 -459.192Z" fill="#6759AE"/>
<path d="M33.7438 133.583C128.276 210.134 256.643 192.814 329.805 102.466C402.967 12.1182 391.162 -137.208 298.688 -193.595C206.213 -249.982 70.017 -271.445 2.62655 -162.478C-64.7639 -53.5105 -60.7887 57.0324 33.7438 133.583Z" fill="#E0436B"/>
<path d="M1498 -422.032C1584.49 -351.998 1587.29 -240.44 1533.98 -146.275C1480.68 -52.1091 1388.39 33.5192 1324.47 112.446C1260.56 191.374 1139.29 209.108 1047.26 134.588C955.238 60.0673 938.004 -69.5691 1011.28 -141.17C1084.57 -212.77 1142.43 -322.013 1220.79 -399.891C1299.16 -477.769 1411.52 -492.066 1498 -422.032Z" fill="#0F90D1"/>
</g>
<defs>
<clipPath id="clip0">
<rect width="1600" height="1200" fill="white"/>
</clipPath>
</defs>
</svg>
